<svg width="256" height="256" viewBox="0 0 256 256" fill="none" xmlns="http://www.w3.org/2000/svg">
<rect width="256" height="256" rx="128" fill="white"/>
<path d="M161.369 93.1151C163.967 95.0785 165.395 97.9873 165.898 101.171C166.134 104.709 165.295 107.716 163.051 110.52C160.648 113.079 158.015 114.201 154.511 114.331C151.222 114.204 148.682 113.248 146.296 110.949C143.694 107.975 143.164 104.943 143.36 101.085C143.703 98.004 144.77 95.834 147.192 93.8534C151.487 90.8366 156.778 90.1997 161.369 93.1151ZM152.605 100.053C151.506 101.279 151.506 101.279 151.258 102.797C151.925 104.197 152.391 104.771 153.698 105.642C155.196 105.589 156.178 105.534 157.358 104.575C157.963 103.138 157.782 102.248 157.358 100.764C156.469 99.7348 156.469 99.7348 155.325 99.138C153.668 98.964 153.668 98.964 152.605 100.053Z" fill="#04C9C9"/>
<path d="M127.24 143.981C127.631 143.98 128.023 143.979 128.427 143.978C131.501 144.039 133.198 144.777 135.601 146.699C136.211 147.512 136.211 147.512 136.149 148.266C135.696 149.415 135.045 150.035 134.164 150.898C133.835 151.223 133.506 151.547 133.167 151.882C132.648 152.385 132.648 152.385 132.119 152.898C131.598 153.411 131.598 153.411 131.067 153.934C130.209 154.777 129.348 155.617 128.485 156.455C126.901 155.717 125.733 154.696 124.469 153.508C124.254 153.308 124.038 153.108 123.816 152.902C122.358 151.543 120.929 150.16 119.539 148.732C121.371 144.91 122.957 143.801 127.24 143.981Z" fill="#04C2C2"/>
<path d="M186.231 28C185.926 33.8334 185.377 39.6423 184.834 45.4574C184.737 46.5086 184.639 47.5598 184.541 48.611C184.363 50.523 184.184 52.4349 184.005 54.3468C183.742 57.1509 183.482 59.9552 183.223 62.7597C182.998 65.2043 182.77 67.6486 182.54 70.0928C182.443 71.1277 182.348 72.1627 182.253 73.1978C182.12 74.6406 181.984 76.083 181.847 77.5254C181.79 78.164 181.79 78.164 181.731 78.8155C181.537 80.8203 181.295 82.6167 180.537 84.504C179.023 83.0124 177.574 81.4743 176.141 79.9055C175.494 79.2053 174.846 78.5061 174.198 77.8072C173.729 77.2997 173.263 76.7889 172.798 76.2771C165.67 68.7289 154.096 62.809 143.778 61.5747C141.879 61.7886 140.983 62.6433 139.694 63.9502C139.465 64.1746 139.235 64.399 138.998 64.6302C138.333 65.2858 137.679 65.951 137.026 66.6179C136.717 66.9181 136.408 67.2184 136.09 67.5277C132.69 71.0352 130.632 75.698 128.486 80.0325C128.218 80.0325 127.949 80.0325 127.673 80.0325C127.471 79.6149 127.269 79.1972 127.061 78.7669C123.937 72.3602 119.808 64.6134 113.033 61.3333C111.705 61.2729 111.705 61.2729 110.39 61.689C109.894 61.8205 109.398 61.9521 108.887 62.0876C108.377 62.2411 107.866 62.3946 107.34 62.5528C106.846 62.6938 106.353 62.8347 105.844 62.98C101.912 64.189 98.3497 65.9002 94.734 67.8374C94.3162 68.0538 93.8985 68.2702 93.468 68.4932C87.1036 71.9626 80.5459 77.4464 76.5094 83.5179C76.0281 84.0975 76.0281 84.0975 74.8081 84.504C73.8745 79.2826 73.4445 73.9989 72.9369 68.7234C72.8378 67.7027 72.7387 66.682 72.6395 65.6613C72.4328 63.53 72.2271 61.3987 72.0223 59.2672C71.7866 56.8145 71.5482 54.3621 71.3085 51.9097C71.0764 49.5343 70.8468 47.1587 70.618 44.783C70.5211 43.7791 70.4235 42.7753 70.3252 41.7715C70.1879 40.3665 70.0533 38.9612 69.9194 37.5558C69.8788 37.1469 69.8383 36.7379 69.7965 36.3166C69.5483 33.6724 69.476 31.0618 69.5216 28.4065C70.9332 28.7197 71.7567 29.1806 72.9035 30.0754C73.2437 30.3382 73.5839 30.601 73.9344 30.8717C74.4801 31.2989 74.4801 31.2989 75.0369 31.7348C75.8122 32.3339 76.5879 32.9326 77.364 33.5307C77.7546 33.8322 78.1452 34.1337 78.5476 34.4443C80.1982 35.7076 81.8726 36.9368 83.5511 38.1626C86.6507 40.4314 89.7099 42.7494 92.7603 45.0837C95.4792 47.1604 98.2263 49.1956 100.986 51.2176C102.875 52.6038 104.748 54.0075 106.603 55.439C107.017 55.756 107.431 56.0731 107.858 56.3997C108.55 56.942 109.232 57.498 109.898 58.0733C111.282 59.241 111.858 59.7073 113.72 59.7073C114.306 59.5814 114.891 59.4447 115.473 59.3008C119.406 58.5382 123.272 58.3454 127.266 58.3608C127.558 58.36 127.85 58.3593 128.151 58.3585C132.179 58.3517 136.108 58.5366 140.042 59.4877C141.912 59.8746 142.903 59.7631 144.522 58.7101C145.148 58.2386 145.767 57.7575 146.379 57.2683C147.044 56.7715 147.71 56.2751 148.375 55.7788C149.075 55.2432 149.773 54.7064 150.471 54.1687C151.229 53.5873 151.988 53.0061 152.747 52.4252C153.117 52.1415 153.487 51.8579 153.869 51.5657C155.296 50.476 156.732 49.3991 158.172 48.3252C160.667 46.4618 163.144 44.5759 165.618 42.6849C168.681 40.3457 171.767 38.0431 174.877 35.7671C177.435 33.8909 179.958 31.9723 182.468 30.0314C182.737 29.8238 183.006 29.6161 183.284 29.4021C183.52 29.2191 183.756 29.036 184 28.8474C184.784 28.275 185.247 28 186.231 28Z" fill="#04CCCC"/>
<path d="M116.28 66.6224C117.744 67.9591 118.816 69.5397 119.896 71.1908C120.107 71.5111 120.318 71.8313 120.535 72.1613C123.483 76.7398 127.266 83.0036 127.266 88.5689C128.49 87.4278 129.34 86.2972 130.189 84.8595C134.314 78.2797 139.979 74.3755 147.495 72.5588C149.636 72.1544 151.729 72.132 153.902 72.1563C154.324 72.1516 154.746 72.1469 155.181 72.142C162.304 72.1686 168.373 74.8913 173.624 79.6258C173.903 79.8663 174.181 80.1068 174.468 80.3546C177.722 83.3523 180.948 87.9503 182.164 92.2274C182.186 92.9046 182.191 93.583 182.164 94.2599C180.977 94.3149 179.793 94.3551 178.606 94.387C178.27 94.404 177.935 94.421 177.589 94.4386C175.089 94.489 175.089 94.489 173.867 93.3469C173.546 92.7928 173.546 92.7928 173.218 92.2274C173.022 91.9308 172.827 91.6342 172.625 91.3287C172.443 91.0384 172.261 90.7481 172.074 90.449C168.936 85.7628 164.161 82.5514 158.604 81.4138C151.909 80.5431 146.012 81.9629 140.609 86.0028C136.029 89.8421 133.62 95.2975 132.959 101.171C132.502 106.655 134.223 112.234 137.525 116.594C141.548 121.287 146.827 124.311 153.063 124.83C159.465 124.947 165.3 122.776 169.966 118.334C173.439 114.469 175.563 109.588 175.786 104.389C175.803 104.011 175.82 103.632 175.838 103.242C175.854 102.852 175.87 102.462 175.886 102.06C175.904 101.662 175.922 101.264 175.94 100.854C175.983 99.8754 176.024 98.8969 176.064 97.9185C178.48 97.9185 180.895 97.9185 183.384 97.9185C184.567 102.649 183.948 107.913 182.838 112.605C182.525 113.771 182.525 113.771 182.571 114.992C182.909 114.595 182.909 114.595 183.254 114.191C183.548 113.852 183.843 113.512 184.147 113.162C184.439 112.823 184.732 112.483 185.033 112.133C185.294 111.869 185.555 111.605 185.824 111.333C186.092 111.333 186.361 111.333 186.637 111.333C187.347 113.976 187.817 116.621 188.242 119.323C188.313 119.771 188.384 120.219 188.457 120.681C188.606 121.623 188.754 122.566 188.902 123.509C189.127 124.947 189.357 126.384 189.587 127.82C189.732 128.74 189.876 129.659 190.021 130.579C190.124 131.218 190.124 131.218 190.229 131.871C190.579 134.134 190.777 136.278 190.704 138.569C189.484 138.022 188.638 137.416 187.698 136.469C187.307 136.079 187.307 136.079 186.909 135.68C186.633 135.4 186.356 135.12 186.072 134.831C185.785 134.543 185.499 134.256 185.203 133.959C184.29 133.042 183.38 132.121 182.469 131.201C181.85 130.578 181.23 129.955 180.611 129.332C179.093 127.806 177.578 126.278 176.064 124.748C175.874 124.913 175.684 125.077 175.488 125.247C175.236 125.465 174.984 125.683 174.724 125.907C174.475 126.122 174.226 126.337 173.97 126.559C167.804 131.708 160.103 134.285 152.072 133.691C144.521 132.895 138.322 130.177 132.959 124.748C132.949 125.214 132.939 125.679 132.928 126.159C132.89 127.881 132.849 129.603 132.808 131.325C132.79 132.072 132.773 132.818 132.757 133.564C132.734 134.635 132.708 135.706 132.681 136.776C132.675 137.112 132.668 137.448 132.661 137.794C132.599 140.149 132.599 140.149 132.146 140.601C131.481 140.637 130.815 140.645 130.149 140.641C129.747 140.64 129.345 140.638 128.93 140.637C128.507 140.634 128.084 140.63 127.647 140.627C127.223 140.625 126.798 140.623 126.36 140.621C125.306 140.616 124.253 140.61 123.2 140.601C123.212 140.373 123.224 140.144 123.237 139.909C125.55 111.097 125.55 111.097 114.253 85.7234C113.937 85.3508 113.937 85.3508 113.615 84.9707C107.508 78.2531 98.4662 76.0624 89.7542 75.6068C89.3846 75.5916 89.015 75.5764 88.6343 75.5608C89.1749 73.9394 90.1965 73.4539 91.5825 72.5882C91.8383 72.427 92.0941 72.2657 92.3576 72.0996C97.7167 68.79 110.184 62.5144 116.28 66.6224Z" fill="#04CACA"/>
<path d="M96.7666 175.968C104.546 178.005 111.327 181.747 117.099 187.35C117.407 187.628 117.716 187.906 118.033 188.193C122.253 192.127 124.715 197.069 127.049 202.258C127.537 203.521 127.537 203.521 128.079 204.016C128.242 203.613 128.405 203.209 128.573 202.794C130.953 197.047 133.885 192.249 138.245 187.756C138.611 187.346 138.611 187.346 138.984 186.927C144.012 181.477 151.769 177.463 158.984 175.968C158.826 181.963 156.252 187.707 153.698 193.041C153.577 193.294 153.456 193.547 153.331 193.807C149.372 201.942 143.433 208.877 137.748 215.845C134.529 219.799 131.458 223.858 128.485 228C126.818 227.373 126.093 226.312 125.054 224.9C124.695 224.419 124.334 223.938 123.973 223.457C123.782 223.203 123.591 222.949 123.394 222.687C122.362 221.341 121.278 220.036 120.2 218.727C118.225 216.316 116.32 213.864 114.465 211.36C113.428 209.961 112.381 208.574 111.303 207.206C105.727 200.115 101.379 192.725 98.444 184.174C98.3226 183.824 98.2011 183.475 98.0759 183.115C97.2919 180.737 96.9154 178.466 96.7666 175.968Z" fill="#04CCCC"/>
<path d="M160.204 148.731C160.622 150.804 160.676 152.793 160.679 154.897C160.681 155.253 160.682 155.609 160.683 155.976C160.685 156.727 160.686 157.478 160.686 158.23C160.687 159.366 160.695 160.502 160.702 161.639C160.728 169.532 160.728 169.532 159.798 172.309C158.918 173.188 158.567 173.298 157.397 173.592C150.565 175.409 144.367 178.108 139.058 182.878C138.792 183.087 138.526 183.296 138.251 183.511C134.171 186.782 131.145 191.44 128.485 195.886C127.128 195.434 126.99 195.238 126.236 194.099C126.043 193.814 125.85 193.528 125.651 193.234C125.446 192.927 125.24 192.62 125.029 192.304C118.83 183.318 110.935 177.227 100.45 174.052C98.8945 173.579 97.4362 172.975 95.9533 172.309C95.6596 169.058 95.4443 165.814 95.3179 162.553C95.3007 162.118 95.2834 161.684 95.2656 161.236C95.1167 157.202 95.0994 153.174 95.14 149.138C97.4062 149.242 98.5699 150.686 100.096 152.187C100.644 152.712 101.192 153.237 101.74 153.762C102.005 154.017 102.269 154.272 102.541 154.535C103.445 155.4 104.371 156.235 105.306 157.065C113.719 164.601 113.719 164.601 116.286 167.837C116.597 168.219 116.908 168.6 117.228 168.993C121.933 174.859 125.141 181.27 128.079 188.162C128.272 187.636 128.272 187.636 128.47 187.1C131.471 179.252 135.35 172.501 141.069 166.31C141.79 165.524 142.473 164.722 143.15 163.899C144.252 162.6 145.487 161.52 146.783 160.418C147.565 159.736 148.295 159.026 149.021 158.284C150.197 157.09 151.427 155.991 152.699 154.9C153.527 154.167 154.337 153.421 155.142 152.662C155.398 152.421 155.653 152.18 155.917 151.932C156.433 151.445 156.947 150.956 157.46 150.466C159.301 148.731 159.301 148.731 160.204 148.731Z" fill="#04CACA"/>
<path d="M104.9 117.431C109.218 120.957 115.11 126.213 115.88 132.065C114.66 131.659 114.66 131.659 113.872 130.642C109.96 125.768 103.803 123.245 97.8346 122.029C88.961 121.265 80.1641 123.592 73.1559 129.245C70.5578 131.64 68.1636 134.672 66.3906 137.727C66.216 138.005 66.0415 138.283 65.8616 138.569C65.5932 138.569 65.3248 138.569 65.0483 138.569C64.7693 130.698 65.7058 123.304 67.6661 115.678C67.7396 115.377 67.8131 115.075 67.8888 114.765C68.2569 113.446 68.5648 112.671 69.6327 111.791C80.9763 107.112 95.4193 110.244 104.9 117.431Z" fill="#04C9C9"/>
<path d="M98.4352 97.8634C100.863 97.765 102.65 98.2283 104.455 99.8227C105.275 100.648 106.056 101.498 106.832 102.365C107.1 102.656 107.368 102.947 107.644 103.247C111 106.919 111 106.919 111 108.082C109.395 108.183 107.792 108.256 106.185 108.305C105.375 108.335 104.566 108.387 103.757 108.439C99.8612 108.537 99.8612 108.537 97.9707 107.22C96.9437 106.198 96.0358 105.154 95.1406 104.017C94.6182 103.43 94.0934 102.845 93.5649 102.263C90.6675 98.881 90.6675 98.881 90.6675 98.3255C91.7518 98.2565 92.8362 98.189 93.9207 98.1222C94.2232 98.1028 94.5256 98.0834 94.8372 98.0635C96.0363 97.9905 97.2364 97.9414 98.4352 97.8634Z" fill="#04C5C5"/>
<path d="M150.445 156.862C150.713 156.996 150.981 157.13 151.258 157.268C147.769 160.756 144.28 164.244 140.685 167.837C140.416 167.703 140.148 167.569 139.872 167.431C142.093 164.945 144.282 162.505 146.842 160.358C148.113 159.264 149.276 158.063 150.445 156.862Z" fill="#038989"/>
<path d="M137.432 76.7805C137.701 76.9147 137.969 77.0488 138.246 77.187C136.367 79.0651 134.488 80.9431 132.553 82.8781C132.284 82.7439 132.016 82.6098 131.739 82.4716C132.305 81.8261 132.873 81.183 133.442 80.5407C133.916 80.003 133.916 80.003 134.4 79.4546C135.352 78.4558 136.335 77.6144 137.432 76.7805Z" fill="#039090"/>
<path d="M185.823 111.333C186.092 111.333 186.36 111.333 186.636 111.333C186.016 112.798 185.142 113.749 184.019 114.865C183.7 115.185 183.382 115.505 183.054 115.835C182.163 116.618 182.163 116.618 180.943 117.024C181.558 115.459 182.49 114.8 183.79 113.772C184.163 113.339 184.527 112.899 184.883 112.451C185.193 112.082 185.503 111.713 185.823 111.333Z" fill="#038787"/>
<path d="M90.6675 73.1218C90.9359 73.256 91.2043 73.3901 91.4808 73.5283C90.877 74.132 90.877 74.132 90.2609 74.7478C91.2002 74.882 92.1396 75.0161 93.1074 75.1543C93.1074 75.2885 93.1074 75.4226 93.1074 75.5608C91.6313 75.5608 90.1552 75.5608 88.6343 75.5608C89.095 74.1791 89.4985 73.9135 90.6675 73.1218Z" fill="#038C8C"/>
</svg>
