<svg width="120" height="120" viewBox="0 0 120 120" fill="none" xmlns="http://www.w3.org/2000/svg">
<rect width="120" height="120" rx="60" fill="#BC0005"/>
<path d="M49.333 68.6673V65.334H51.333V68.6673H49.333ZM63.9997 65.334H65.9997V76.0007H63.9997V65.334Z" fill="white"/>
<path d="M69.104 30.666H36V89.3327H84V73.9994H78.6667V81.3327H73.3333V63.9993C73.3333 62.9385 73.7548 61.9211 74.5049 61.1709C75.2551 60.4208 76.2725 59.9993 77.3333 59.9993H84V62.37V45.562L69.104 30.666ZM66.6667 47.9993V35.9993L78.6667 47.9993H66.6667ZM52.6667 73.9994H49.3333V81.3327H44V59.9993H52.6667C53.7275 59.9993 54.7449 60.4208 55.4951 61.1709C56.2452 61.9211 56.6667 62.9385 56.6667 63.9993V69.9994C56.6667 71.0602 56.2452 72.0776 55.4951 72.8278C54.7449 73.5779 53.7275 73.9994 52.6667 73.9994ZM71.3333 63.9993V77.3327C71.3333 78.3935 70.9119 79.411 70.1618 80.1611C69.4116 80.9113 68.3942 81.3327 67.3333 81.3327H58.6667V59.9993H67.3333C68.3942 59.9993 69.4116 60.4208 70.1618 61.1709C70.9119 61.9211 71.3333 62.9385 71.3333 63.9993Z" fill="white"/>
<path d="M84.0003 65.334H78.667V68.6673H84.0003V65.334Z" fill="white"/>
</svg>
