<svg width="120" height="120" viewBox="0 0 120 120" fill="none" xmlns="http://www.w3.org/2000/svg">
<rect width="120" height="120" rx="60" fill="#1A549C"/>
<g clip-path="url(#clip0_6024_10774)">
<path d="M44 28C39.5875 28 36 31.5875 36 36V84C36 88.4125 39.5875 92 44 92H76C80.4125 92 84 88.4125 84 84V48H68C65.7875 48 64 46.2125 64 44V28H44ZM68 28V44H84L68 28ZM49.875 60.1375L53.225 71.2875L57.175 60C57.6 58.8 58.7375 57.9875 60.0125 57.9875C61.2875 57.9875 62.425 58.7875 62.85 60L66.8 71.2875L70.125 60.1375C70.6 58.55 72.275 57.65 73.8625 58.125C75.45 58.6 76.35 60.275 75.875 61.8625L69.875 81.8625C69.5 83.1125 68.375 83.975 67.075 84C65.775 84.025 64.6 83.225 64.175 81.9875L60 70.075L55.8375 81.9875C55.4125 83.2125 54.2375 84.025 52.9375 84C51.6375 83.975 50.5 83.1125 50.1375 81.8625L44.1375 61.8625C43.6625 60.275 44.5625 58.6 46.15 58.125C47.7375 57.65 49.4125 58.55 49.8875 60.1375H49.875Z" fill="white"/>
</g>
<defs>
<clipPath id="clip0_6024_10774">
<rect width="48" height="64" fill="white" transform="translate(36 28)"/>
</clipPath>
</defs>
</svg>
