<svg width="120" height="120" viewBox="0 0 120 120" fill="none" xmlns="http://www.w3.org/2000/svg">
<rect width="120" height="120" rx="60" fill="#1E7145"/>
<g clip-path="url(#clip0_6024_10771)">
<path d="M64 45V28H39C37.3375 28 36 29.3375 36 31V89C36 90.6625 37.3375 92 39 92H81C82.6625 92 84 90.6625 84 89V48H67C65.35 48 64 46.65 64 45ZM52 63C52 63.5525 51.5525 64 51 64H50C48.895 64 48 64.895 48 66V70C48 71.105 48.895 72 50 72H51C51.5525 72 52 72.4475 52 73V75C52 75.5525 51.5525 76 51 76H50C46.6862 76 44 73.3138 44 70V66C44 62.6862 46.6862 60 50 60H51C51.5525 60 52 60.4475 52 61V63ZM57.5338 76H56C55.4475 76 55 75.5525 55 75V73C55 72.4475 55.4475 72 56 72H57.5338C58.2775 72 58.835 71.5625 58.835 71.1725C58.835 71.01 58.7412 70.84 58.57 70.6925L55.8337 68.3462C54.775 67.4437 54.1675 66.1613 54.1675 64.8288C54.1675 62.1663 56.545 60.0013 59.4688 60.0013H61C61.5525 60.0013 62 60.4488 62 61.0013V63.0013C62 63.5538 61.5525 64.0013 61 64.0013H59.4662C58.7225 64.0013 58.165 64.4388 58.165 64.8288C58.165 64.9913 58.2588 65.1613 58.43 65.3088L61.1663 67.655C62.225 68.5575 62.8325 69.84 62.8325 71.1725C62.8338 73.8338 60.4575 76 57.5338 76ZM68 61V63.6C68 66.1337 68.7125 68.6212 70 70.71C71.2875 68.6225 72 66.1337 72 63.6V61C72 60.4475 72.4475 60 73 60H75C75.5525 60 76 60.4475 76 61V63.6C76 68.035 74.39 72.2113 71.465 75.3613C71.0875 75.7675 70.5562 76 70 76C69.4438 76 68.9125 75.7675 68.535 75.3613C65.61 72.2113 64 68.035 64 63.6V61C64 60.4475 64.4475 60 65 60H67C67.5525 60 68 60.4475 68 61ZM83.125 41.125L70.8875 28.875C70.325 28.3125 69.5625 28 68.7625 28H68V44H84V43.2375C84 42.45 83.6875 41.6875 83.125 41.125Z" fill="white"/>
</g>
<defs>
<clipPath id="clip0_6024_10771">
<rect width="48" height="64" fill="white" transform="translate(36 28)"/>
</clipPath>
</defs>
</svg>
