<svg width="147" height="234" viewBox="0 0 147 234" fill="none" xmlns="http://www.w3.org/2000/svg">
<path d="M112.666 76.1267C115.704 78.4222 117.373 81.8228 117.96 85.5444C118.236 89.6814 117.256 93.1972 114.632 96.4751C111.823 99.4668 108.745 100.778 104.648 100.931C100.803 100.782 97.8328 99.6643 95.0435 96.9763C92.0016 93.4993 91.3821 89.9544 91.6116 85.4442C92.0127 81.8424 93.2599 79.3054 96.0909 76.99C101.113 73.4629 107.298 72.7183 112.666 76.1267ZM102.42 84.2375C101.135 85.6716 101.135 85.6716 100.845 87.4454C101.625 89.0829 102.169 89.7536 103.698 90.7721C105.448 90.7096 106.597 90.6454 107.976 89.5246C108.684 87.8451 108.472 86.8041 107.976 85.0692C106.938 83.8659 106.938 83.8659 105.599 83.1682C103.663 82.9648 103.663 82.9648 102.42 84.2375Z" fill="#04C9C9"/>
<path d="M72.765 135.594C73.2231 135.593 73.6812 135.592 74.1532 135.591C77.7467 135.663 79.7308 136.525 82.5408 138.772C83.2539 139.723 83.2539 139.723 83.1807 140.604C82.651 141.947 81.8909 142.672 80.8601 143.681C80.4756 144.061 80.091 144.44 79.6948 144.832C79.0885 145.42 79.0885 145.42 78.47 146.02C77.861 146.619 77.861 146.619 77.2397 147.23C76.2366 148.216 75.2303 149.199 74.221 150.178C72.3693 149.316 71.0037 148.121 69.5262 146.733C69.2742 146.499 69.0221 146.265 68.7625 146.024C67.0577 144.435 65.3872 142.819 63.7617 141.149C65.904 136.68 67.7582 135.384 72.765 135.594Z" fill="#04C2C2"/>
<path d="M141.732 0C141.376 6.81987 140.735 13.6111 140.1 20.4097C139.985 21.6386 139.871 22.8676 139.757 24.0965C139.549 26.3318 139.34 28.5671 139.13 30.8023C138.823 34.0805 138.518 37.3591 138.216 40.6379C137.953 43.4959 137.686 46.3536 137.418 49.2111C137.304 50.4211 137.192 51.6311 137.082 52.8412C136.927 54.528 136.768 56.2143 136.607 57.9006C136.54 58.6472 136.54 58.6472 136.472 59.4089C136.245 61.7527 135.962 63.8529 135.076 66.0594C133.306 64.3155 131.612 62.5173 129.936 60.6832C129.18 59.8646 128.422 59.0472 127.664 58.2301C127.116 57.6367 126.572 57.0395 126.028 56.4412C117.694 47.6165 104.163 40.6956 92.1008 39.2525C89.8805 39.5026 88.8326 40.5018 87.3262 42.0297C87.0576 42.2921 86.789 42.5544 86.5123 42.8247C85.7349 43.5912 84.9703 44.3688 84.2062 45.1485C83.8453 45.4995 83.4843 45.8506 83.1124 46.2122C79.1377 50.3129 76.7317 55.7642 74.2224 60.8317C73.9086 60.8317 73.5949 60.8317 73.2716 60.8317C73.0356 60.3434 72.7997 59.8552 72.5566 59.3521C68.9036 51.862 64.077 42.8051 56.1565 38.9703C54.6032 38.8997 54.6032 38.8997 53.0662 39.3861C52.4865 39.5399 51.9067 39.6937 51.3094 39.8521C50.7125 40.0316 50.1156 40.2111 49.5006 40.396C48.9233 40.5608 48.346 40.7256 47.7512 40.8954C43.1543 42.309 38.9897 44.3095 34.7626 46.5743C34.2741 46.8273 33.7857 47.0803 33.2824 47.341C25.8418 51.3971 18.1751 57.8083 13.4559 64.9066C12.8932 65.5842 12.8932 65.5842 11.467 66.0594C10.3755 59.955 9.8727 53.7778 9.2793 47.6101C9.16349 46.4168 9.04759 45.2235 8.93162 44.0301C8.68992 41.5385 8.44952 39.0467 8.21007 36.5548C7.93448 33.6873 7.65576 30.8201 7.37553 27.9531C7.10421 25.176 6.83572 22.3986 6.56831 19.6212C6.45498 18.4475 6.34086 17.2739 6.22595 16.1004C6.06539 14.4578 5.90805 12.8148 5.75148 11.1718C5.70408 10.6937 5.65666 10.2156 5.60782 9.72299C5.31763 6.63162 5.23317 3.57955 5.28651 0.475248C6.93681 0.841356 7.89957 1.38024 9.2403 2.42636C9.63803 2.73359 10.0358 3.04082 10.4456 3.35736C11.0835 3.85681 11.0835 3.85681 11.7344 4.36634C12.6408 5.06683 13.5477 5.7667 14.4551 6.46597C14.9117 6.81845 15.3684 7.17094 15.8388 7.53411C17.7685 9.01101 19.7261 10.4481 21.6885 11.8812C25.3123 14.5337 28.8888 17.2437 32.4551 19.9727C35.6337 22.4006 38.8454 24.7799 42.0718 27.1439C44.2804 28.7645 46.4702 30.4056 48.6389 32.0792C49.123 32.4498 49.6072 32.8205 50.106 33.2024C50.9154 33.8364 51.7128 34.4864 52.4905 35.159C54.1093 36.5242 54.7827 37.0693 56.9587 37.0693C57.6447 36.9222 58.3279 36.7623 59.009 36.5941C63.6073 35.7025 68.1269 35.4771 72.7962 35.495C73.1375 35.4942 73.4789 35.4933 73.8306 35.4924C78.5395 35.4844 83.1332 35.7006 87.7329 36.8125C89.9183 37.2649 91.0771 37.1345 92.9699 35.9035C93.7018 35.3523 94.4252 34.7898 95.1409 34.2178C95.9188 33.6371 96.6969 33.0566 97.4753 32.4765C98.2927 31.8502 99.1092 31.2227 99.9248 30.5941C100.812 29.9144 101.699 29.2349 102.586 28.5557C103.019 28.2241 103.452 27.8925 103.897 27.5509C105.566 26.2769 107.246 25.0179 108.928 23.7624C111.845 21.5839 114.742 19.3791 117.634 17.1683C121.214 14.4335 124.823 11.7414 128.458 9.08064C131.449 6.88708 134.399 4.64401 137.333 2.37496C137.648 2.13217 137.963 1.88938 138.287 1.63923C138.563 1.42524 138.839 1.21124 139.124 0.990756C140.041 0.321521 140.582 0 141.732 0Z" fill="#04CCCC"/>
<path d="M59.952 45.1541C61.6631 46.7167 62.9166 48.5647 64.1788 50.495C64.4254 50.8694 64.6721 51.2438 64.9263 51.6296C68.3729 56.9823 72.7958 64.3054 72.7958 70.8119C74.2265 69.4778 75.2202 68.1561 76.2128 66.4752C81.0352 58.7827 87.6588 54.2183 96.4454 52.0944C98.9482 51.6215 101.396 51.5954 103.936 51.6238C104.429 51.6182 104.922 51.6127 105.431 51.607C113.759 51.6382 120.854 54.8213 126.994 60.3564C127.319 60.6376 127.644 60.9188 127.98 61.2085C131.785 64.7131 135.555 70.0887 136.977 75.0891C137.003 75.8808 137.009 76.6739 136.977 77.4653C135.59 77.5295 134.206 77.5766 132.818 77.6139C132.425 77.6338 132.033 77.6537 131.629 77.6742C128.706 77.7331 128.706 77.7331 127.278 76.3979C126.902 75.75 126.902 75.75 126.518 75.0891C126.29 74.7424 126.061 74.3956 125.826 74.0384C125.613 73.699 125.4 73.3596 125.181 73.0099C121.512 67.5312 115.93 63.7768 109.433 62.4468C101.606 61.4289 94.7111 63.0888 88.3955 67.8119C83.0409 72.3004 80.2244 78.6784 79.4516 85.5445C78.9171 91.9571 80.9294 98.4793 84.789 103.576C89.4932 109.062 95.6646 112.598 102.955 113.205C110.44 113.342 117.261 110.804 122.717 105.611C126.777 101.091 129.26 95.3861 129.521 89.3075C129.541 88.8649 129.561 88.4223 129.582 87.9663C129.6 87.5102 129.619 87.0541 129.638 86.5842C129.659 86.1189 129.679 85.6536 129.7 85.1742C129.751 84.0304 129.799 82.8865 129.846 81.7426C132.67 81.7426 135.494 81.7426 138.404 81.7426C139.787 87.2734 139.063 93.427 137.765 98.9127C137.4 100.276 137.4 100.276 137.453 101.703C137.848 101.24 137.848 101.24 138.251 100.767C138.596 100.37 138.94 99.9734 139.295 99.5644C139.637 99.1674 139.979 98.7704 140.331 98.3614C140.637 98.0526 140.942 97.7439 141.256 97.4257C141.57 97.4257 141.884 97.4257 142.207 97.4257C143.037 100.515 143.587 103.608 144.083 106.767C144.166 107.291 144.249 107.814 144.335 108.354C144.509 109.456 144.682 110.559 144.855 111.661C145.118 113.342 145.387 115.021 145.656 116.701C145.825 117.776 145.994 118.851 146.163 119.926C146.283 120.674 146.283 120.674 146.406 121.437C146.815 124.083 147.047 126.59 146.961 129.267C145.535 128.628 144.546 127.92 143.447 126.813C142.991 126.356 142.991 126.356 142.525 125.89C142.202 125.563 141.879 125.235 141.546 124.897C141.211 124.561 140.876 124.225 140.531 123.878C139.463 122.806 138.398 121.73 137.334 120.653C136.61 119.925 135.886 119.197 135.161 118.468C133.387 116.684 131.616 114.898 129.846 113.109C129.624 113.302 129.402 113.494 129.173 113.693C128.878 113.947 128.583 114.202 128.279 114.464C127.988 114.716 127.697 114.967 127.397 115.226C120.189 121.247 111.186 124.259 101.796 123.564C92.9689 122.634 85.7217 119.456 79.4516 113.109C79.4397 113.653 79.4278 114.198 79.4155 114.759C79.3709 116.772 79.3232 118.785 79.2746 120.799C79.254 121.671 79.2342 122.544 79.2152 123.417C79.1879 124.668 79.1576 125.92 79.1267 127.171C79.1187 127.564 79.1108 127.957 79.1026 128.361C79.0304 131.114 79.0304 131.114 78.5008 131.644C77.7236 131.685 76.9447 131.694 76.1664 131.69C75.6961 131.688 75.2257 131.687 74.7411 131.685C74.2462 131.681 73.7513 131.677 73.2415 131.673C72.7448 131.671 72.248 131.669 71.7363 131.667C70.5047 131.661 69.2731 131.653 68.0416 131.644C68.056 131.376 68.0704 131.109 68.0852 130.834C70.7892 97.1493 70.7892 97.1493 57.5823 67.4851C57.2128 67.0496 57.2128 67.0496 56.8358 66.6052C49.6968 58.7516 39.1255 56.1904 28.9401 55.6578C28.5081 55.64 28.076 55.6223 27.6309 55.604C28.2629 53.7084 29.4573 53.1408 31.0777 52.1287C31.3767 51.9402 31.6757 51.7517 31.9838 51.5575C38.2492 47.6882 52.8245 40.3513 59.952 45.1541Z" fill="#04CACA"/>
<path d="M37.1387 172.99C46.2331 175.372 54.1617 179.747 60.9097 186.297C61.27 186.622 61.6304 186.948 62.0017 187.283C66.9346 191.883 69.8138 197.66 72.5426 203.727C73.1124 205.204 73.1124 205.204 73.746 205.782C73.9366 205.311 74.1272 204.839 74.3236 204.353C77.1067 197.635 80.5342 192.025 85.6315 186.772C86.059 186.293 86.059 186.293 86.4951 185.803C92.3739 179.432 101.442 174.739 109.878 172.99C109.693 180 106.684 186.715 103.697 192.951C103.556 193.246 103.415 193.542 103.269 193.847C98.6399 203.357 91.6966 211.465 85.05 219.611C81.2865 224.235 77.6972 228.979 74.2214 233.822C72.2725 233.089 71.4247 231.848 70.2101 230.198C69.7896 229.635 69.3679 229.072 68.9454 228.511C68.7222 228.214 68.4991 227.917 68.2692 227.611C67.0622 226.037 65.7956 224.512 64.5348 222.98C62.2259 220.162 59.9984 217.296 57.83 214.368C56.6181 212.733 55.3935 211.111 54.1331 209.512C47.6146 201.221 42.5316 192.581 39.0998 182.584C38.9578 182.176 38.8157 181.767 38.6694 181.346C37.7528 178.566 37.3126 175.911 37.1387 172.99Z" fill="#04CCCC"/>
<path d="M111.304 141.148C111.793 143.571 111.856 145.897 111.859 148.357C111.861 148.773 111.863 149.189 111.864 149.618C111.867 150.496 111.868 151.374 111.868 152.253C111.869 153.581 111.877 154.91 111.886 156.238C111.916 165.467 111.916 165.467 110.829 168.713C109.8 169.741 109.39 169.87 108.023 170.213C100.035 172.337 92.7886 175.493 86.5823 181.069C86.271 181.314 85.9597 181.558 85.6389 181.81C80.869 185.634 77.3304 191.08 74.2214 196.277C72.6347 195.748 72.4726 195.52 71.5917 194.189C71.3659 193.855 71.1401 193.521 70.9075 193.177C70.6675 192.818 70.4276 192.459 70.1803 192.089C62.9335 181.584 53.7028 174.463 41.4453 170.751C39.6263 170.198 37.9214 169.492 36.1878 168.713C35.8445 164.913 35.5928 161.12 35.445 157.307C35.4248 156.799 35.4046 156.291 35.3838 155.768C35.2098 151.052 35.1895 146.342 35.237 141.624C37.8864 141.745 39.2469 143.433 41.0311 145.188C41.6715 145.802 42.3122 146.416 42.9532 147.03C43.2624 147.328 43.5715 147.626 43.8899 147.934C44.9459 148.944 46.029 149.921 47.1225 150.891C56.958 159.702 56.958 159.702 59.9588 163.485C60.3222 163.931 60.6856 164.377 61.0601 164.837C66.561 171.695 70.312 179.19 73.746 187.247C73.9721 186.633 73.9721 186.633 74.2028 186.005C77.7114 176.83 82.2472 168.938 88.9334 161.699C89.7757 160.78 90.5748 159.843 91.3662 158.881C92.6538 157.363 94.0986 156.099 95.6134 154.812C96.528 154.013 97.3806 153.183 98.2301 152.317C99.6049 150.921 101.043 149.636 102.529 148.361C103.498 147.503 104.444 146.631 105.386 145.743C105.685 145.462 105.984 145.18 106.292 144.89C106.895 144.321 107.497 143.75 108.096 143.176C110.248 141.148 110.248 141.148 111.304 141.148Z" fill="#04CACA"/>
<path d="M46.6477 104.555C51.6962 108.677 58.5842 114.822 59.484 121.663C58.0577 121.188 58.0577 121.188 57.1366 120C52.5626 114.302 45.3646 111.352 38.3872 109.931C28.0131 109.037 17.7285 111.758 9.53518 118.366C6.49767 121.167 3.69862 124.711 1.62575 128.284C1.42168 128.608 1.2176 128.933 1.00734 129.267C0.69356 129.267 0.379783 129.267 0.056497 129.267C-0.269683 120.065 0.825145 111.421 3.11701 102.505C3.20293 102.153 3.28884 101.801 3.37736 101.438C3.80765 99.8963 4.1676 98.9898 5.41612 97.9605C18.678 92.4905 35.5635 96.1521 46.6477 104.555Z" fill="#04C9C9"/>
<path d="M39.0891 81.6778C41.9272 81.5628 44.0168 82.1044 46.1266 83.9684C47.0852 84.9336 47.9992 85.9265 48.9058 86.9408C49.2189 87.2811 49.5321 87.6214 49.8547 87.972C53.7788 92.2647 53.7788 92.2647 53.7788 93.6239C51.9028 93.7428 50.0284 93.8283 48.1495 93.885C47.2023 93.9202 46.2562 93.9807 45.3104 94.0416C40.7563 94.1566 40.7563 94.1566 38.5461 92.6169C37.3455 91.4221 36.284 90.2018 35.2374 88.8715C34.6266 88.1854 34.0131 87.5016 33.3952 86.822C30.0078 82.8675 30.0078 82.8675 30.0078 82.218C31.2755 82.1374 32.5433 82.0584 33.8112 81.9804C34.1648 81.9577 34.5184 81.935 34.8827 81.9117C36.2846 81.8264 37.6876 81.7689 39.0891 81.6778Z" fill="#04C5C5"/>
<path d="M99.8941 150.653C100.208 150.81 100.522 150.967 100.845 151.129C96.7659 155.206 92.6868 159.284 88.484 163.485C88.1703 163.328 87.8565 163.171 87.5332 163.01C90.1302 160.104 92.6896 157.251 95.6822 154.741C97.1678 153.462 98.5278 152.058 99.8941 150.653Z" fill="#038989"/>
<path d="M84.6813 57.0298C84.995 57.1866 85.3088 57.3434 85.6321 57.505C83.4357 59.7007 81.2392 61.8963 78.9762 64.1585C78.6625 64.0017 78.3487 63.8448 78.0254 63.6833C78.6866 62.9287 79.3508 62.1767 80.0162 61.4258C80.5705 60.7973 80.5705 60.7973 81.136 60.156C82.2493 58.9883 83.3984 58.0047 84.6813 57.0298Z" fill="#039090"/>
<path d="M141.256 97.4258C141.57 97.4258 141.883 97.4258 142.207 97.4258C141.482 99.138 140.46 100.25 139.146 101.554C138.774 101.929 138.402 102.303 138.019 102.689C136.977 103.604 136.977 103.604 135.551 104.079C136.27 102.249 137.358 101.479 138.879 100.277C139.315 99.7713 139.741 99.2561 140.156 98.7327C140.519 98.3014 140.882 97.8701 141.256 97.4258Z" fill="#038787"/>
<path d="M30.008 52.7524C30.3217 52.9093 30.6355 53.0661 30.9588 53.2277C30.2528 53.9334 30.2528 53.9334 29.5325 54.6534C30.6308 54.8103 31.729 54.9671 32.8605 55.1287C32.8605 55.2855 32.8605 55.4423 32.8605 55.6039C31.1347 55.6039 29.4089 55.6039 27.6309 55.6039C28.1695 53.9885 28.6412 53.678 30.008 52.7524Z" fill="#038C8C"/>
</svg>
