<svg width="764" height="240" viewBox="0 0 764 240" fill="none" xmlns="http://www.w3.org/2000/svg">
<g clip-path="url(#clip0_4293_108516)">
<path d="M519.635 53.7028C520.142 53.848 520.142 53.848 520.66 53.9961C528.336 56.2518 535.779 60.051 541.98 65.1088C542.241 65.3182 542.502 65.5277 542.772 65.7434C546.63 68.8495 549.938 72.052 552.914 76.0395C553.229 76.4371 553.544 76.8347 553.869 77.2443C564.31 90.8126 566.309 106.678 566.28 123.271C566.28 124.344 566.28 125.417 566.28 126.491C566.28 129.39 566.277 132.289 566.274 135.188C566.271 138.223 566.271 141.258 566.27 144.293C566.269 149.383 566.266 154.472 566.262 159.562C566.257 164.801 566.254 170.041 566.252 175.281C566.252 175.766 566.252 175.766 566.252 176.261C566.251 177.885 566.25 179.508 566.25 181.132C566.245 194.576 566.236 208.021 566.226 221.465C556.97 221.465 547.713 221.465 538.176 221.465C538.019 203.586 537.862 185.708 537.701 167.287C536.603 168.228 535.504 169.169 534.373 170.138C524.394 176.687 513.306 180.332 501.361 180.297C501.026 180.297 500.692 180.296 500.347 180.296C494.716 180.276 489.402 179.8 483.978 178.218C483.468 178.072 483.468 178.072 482.947 177.924C472.728 174.92 464.103 169.323 456.404 162.059C456.048 161.734 455.692 161.409 455.325 161.074C444.802 151.108 438.121 135.748 437.289 121.394C437.243 119.631 437.231 117.872 437.239 116.109C437.241 115.483 437.244 114.857 437.247 114.212C437.463 96.7999 444.932 81.0614 457.259 68.8349C464.65 61.7277 474.046 56.3002 483.978 53.7028C484.295 53.6117 484.611 53.5206 484.937 53.4267C495.666 50.3978 508.982 50.5252 519.635 53.7028ZM474.457 91.5388C467.795 99.5967 464.345 109.094 465.08 119.552C466.161 127.587 469.589 134.62 474.945 140.673C475.315 141.11 475.315 141.11 475.692 141.555C480.864 147.232 489.538 151.57 497.159 152.183C507.901 152.618 517.014 150.681 525.34 143.525C525.802 143.156 526.264 142.787 526.74 142.407C533.07 137.118 537.283 128.34 538.176 120.237C538.988 110.309 536.396 100.755 529.886 93.0556C529.641 92.7725 529.396 92.4895 529.143 92.1979C528.8 91.7274 528.457 91.2569 528.103 90.7721C523.176 84.9988 514.721 80.7773 507.274 79.8414C494.599 78.9083 483.445 82.1482 474.457 91.5388Z" fill="black"/>
<path d="M148.884 61.6052C151.436 63.5121 153.7 65.7009 155.937 67.9605C156.352 68.3642 156.766 68.7679 157.193 69.1839C167.472 79.7342 171.242 93.6748 171.205 108.044C171.205 108.775 171.205 109.506 171.205 110.237C171.205 112.21 171.202 114.184 171.199 116.157C171.196 118.223 171.196 120.29 171.195 122.356C171.194 126.264 171.19 130.173 171.185 134.081C171.18 138.532 171.177 142.983 171.175 147.435C171.17 156.587 171.161 165.739 171.151 174.891C161.737 174.891 152.324 174.891 142.626 174.891C142.621 172.692 142.617 170.493 142.612 168.227C142.596 160.951 142.57 153.674 142.538 146.398C142.519 141.987 142.504 137.577 142.497 133.166C142.491 129.32 142.478 125.473 142.457 121.627C142.446 119.592 142.439 117.558 142.439 115.523C142.44 113.604 142.431 111.684 142.416 109.765C142.412 109.064 142.411 108.364 142.414 107.664C142.439 100.011 140.479 93.0937 135.227 87.3268C129.413 81.9209 122.647 79.9172 114.879 80.1517C108.016 80.5397 102.062 84.4305 97.4607 89.3466C93.9338 93.9575 91.7137 98.9356 91.6805 104.767C91.6735 105.696 91.6735 105.696 91.6663 106.643C91.6635 107.326 91.6608 108.009 91.6581 108.691C91.6535 109.413 91.6487 110.134 91.6438 110.855C91.631 112.811 91.621 114.767 91.6115 116.723C91.6011 118.768 91.588 120.813 91.5753 122.858C91.5516 126.729 91.5302 130.6 91.5097 134.471C91.4862 138.879 91.4601 143.286 91.4338 147.694C91.3797 156.76 91.3292 165.825 91.2803 174.891C82.0238 174.891 72.7674 174.891 63.2305 174.891C63.2305 135.997 63.2305 97.1027 63.2305 57.0298C72.4869 57.0298 81.7433 57.0298 91.2803 57.0298C91.5156 59.6175 91.5156 59.6175 91.7557 62.2575C92.3244 61.6302 92.8931 61.0029 93.4791 60.3565C108.248 45.6396 133.442 50.7284 148.884 61.6052Z" fill="black"/>
<path d="M210.136 9.97998C219.235 9.97998 228.335 9.97998 237.71 9.97998C237.71 25.5063 237.71 41.0327 237.71 57.0295C246.81 57.0295 255.909 57.0295 265.285 57.0295C265.285 66.1257 265.285 75.222 265.285 84.5938C256.185 84.5938 247.085 84.5938 237.71 84.5938C237.71 114.392 237.71 144.19 237.71 174.891C228.611 174.891 219.511 174.891 210.136 174.891C210.136 145.093 210.136 115.295 210.136 84.5938C206.527 84.5938 202.919 84.5938 199.201 84.5938C199.201 75.4976 199.201 66.4014 199.201 57.0295C202.81 57.0295 206.418 57.0295 210.136 57.0295C210.136 41.5032 210.136 25.9768 210.136 9.97998Z" fill="black"/>
<path d="M0 9.97998C9.5702 9.97998 19.1404 9.97998 29.0006 9.97998C29.0006 64.4006 29.0006 118.821 29.0006 174.891C19.4304 174.891 9.86021 174.891 0 174.891C0 120.47 0 66.0497 0 9.97998Z" fill="black"/>
<path d="M361.528 51.7721C362.169 51.7776 362.811 51.7828 363.452 51.788C364.279 51.7948 364.279 51.7948 365.123 51.8018C364.532 57.6545 363.865 63.4931 363.111 69.3271C362.951 70.5684 362.793 71.8099 362.636 73.0515C362.533 73.8488 362.431 74.6462 362.328 75.4435C362.259 75.9944 362.259 75.9944 362.187 76.5565C361.979 78.157 361.732 79.7072 361.32 81.2671C360.796 81.3082 360.272 81.3492 359.732 81.3915C347.229 82.4937 336.428 87.0032 328.068 96.67C323.899 101.913 320.888 107.976 319.483 114.534C319.401 114.914 319.32 115.294 319.235 115.685C318.909 118.12 318.923 120.535 318.91 122.988C318.905 123.55 318.901 124.111 318.896 124.689C318.883 126.222 318.873 127.754 318.863 129.287C318.853 130.891 318.84 132.495 318.827 134.099C318.804 137.134 318.782 140.168 318.762 143.203C318.736 146.998 318.707 150.794 318.678 154.589C318.626 161.356 318.58 168.124 318.532 174.891C309.276 174.891 300.019 174.891 290.482 174.891C290.482 135.997 290.482 97.1024 290.482 57.0295C299.739 57.0295 308.995 57.0295 318.532 57.0295C318.768 63.8517 318.768 63.8517 319.008 70.8117C319.743 70.0373 320.478 69.263 321.236 68.4652C324.027 65.6248 327.053 63.4472 330.418 61.3067C330.85 61.0194 331.282 60.7321 331.727 60.4361C340.279 55.0492 351.407 51.6527 361.528 51.7721Z" fill="black"/>
<path d="M382.713 57.0298C391.969 57.0298 401.226 57.0298 410.763 57.0298C410.763 95.924 410.763 134.818 410.763 174.891C401.506 174.891 392.25 174.891 382.713 174.891C382.713 135.997 382.713 97.1027 382.713 57.0298Z" fill="black"/>
<path d="M758.771 6.17822C758.415 12.9981 757.774 19.7893 757.139 26.5879C757.024 27.8168 756.91 29.0458 756.796 30.2747C756.588 32.5101 756.379 34.7453 756.169 36.9805C755.862 40.2588 755.557 43.5373 755.255 46.8161C754.992 49.6741 754.725 52.5318 754.457 55.3894C754.343 56.5993 754.231 57.8093 754.121 59.0194C753.966 60.7062 753.807 62.3925 753.647 64.0788C753.579 64.8254 753.579 64.8254 753.511 65.5871C753.284 67.9309 753.001 70.0312 752.115 72.2376C750.345 70.4937 748.651 68.6955 746.975 66.8614C746.219 66.0428 745.461 65.2254 744.704 64.4083C744.155 63.815 743.611 63.2177 743.067 62.6194C734.733 53.7948 721.202 46.8738 709.14 45.4307C706.92 45.6808 705.872 46.6801 704.365 48.2079C704.097 48.4703 703.828 48.7326 703.551 49.0029C702.774 49.7694 702.009 50.5471 701.245 51.3267C700.884 51.6778 700.523 52.0288 700.151 52.3905C696.177 56.4911 693.771 61.9424 691.261 67.0099C690.948 67.0099 690.634 67.0099 690.311 67.0099C690.075 66.5216 689.839 66.0334 689.596 65.5303C685.943 58.0402 681.116 48.9833 673.196 45.1485C671.642 45.0779 671.642 45.0779 670.105 45.5644C669.526 45.7181 668.946 45.8719 668.348 46.0303C667.752 46.2098 667.155 46.3893 666.54 46.5743C665.962 46.7391 665.385 46.9039 664.79 47.0736C660.193 48.4872 656.029 50.4878 651.802 52.7525C651.313 53.0055 650.825 53.2585 650.321 53.5192C642.881 57.5753 635.214 63.9865 630.495 71.0848C629.932 71.7624 629.932 71.7624 628.506 72.2376C627.415 66.1332 626.912 59.956 626.318 53.7884C626.203 52.595 626.087 51.4017 625.971 50.2084C625.729 47.7167 625.489 45.2249 625.249 42.7331C624.974 39.8656 624.695 36.9984 624.415 34.1313C624.143 31.3542 623.875 28.5769 623.607 25.7994C623.494 24.6257 623.38 23.4522 623.265 22.2787C623.104 20.636 622.947 18.9931 622.791 17.35C622.743 16.8719 622.696 16.3938 622.647 15.9012C622.357 12.8098 622.272 9.75778 622.326 6.65347C623.976 7.01958 624.939 7.55847 626.279 8.60458C626.677 8.91181 627.075 9.21905 627.485 9.53559C628.123 10.035 628.123 10.035 628.773 10.5446C629.68 11.2451 630.587 11.9449 631.494 12.6442C631.951 12.9967 632.407 13.3492 632.878 13.7123C634.808 15.1892 636.765 16.6264 638.728 18.0594C642.351 20.7119 645.928 23.4219 649.494 26.1509C652.673 28.5788 655.884 30.9582 659.111 33.3221C661.319 34.9427 663.509 36.5839 665.678 38.2574C666.162 38.6281 666.646 38.9987 667.145 39.3806C667.954 40.0146 668.752 40.6647 669.53 41.3373C671.148 42.7024 671.822 43.2475 673.998 43.2475C674.684 43.1004 675.367 42.9406 676.048 42.7723C680.646 41.8807 685.166 41.6553 689.835 41.6733C690.177 41.6724 690.518 41.6715 690.87 41.6706C695.579 41.6627 700.172 41.8789 704.772 42.9908C706.957 43.4432 708.116 43.3128 710.009 42.0817C710.741 41.5305 711.464 40.968 712.18 40.396C712.958 39.8153 713.736 39.2349 714.514 38.6547C715.332 38.0285 716.148 37.4009 716.964 36.7723C717.851 36.0926 718.738 35.4131 719.625 34.7339C720.058 34.4023 720.491 34.0707 720.936 33.7291C722.605 32.4551 724.285 31.1962 725.967 29.9406C728.884 27.7621 731.781 25.5573 734.673 23.3465C738.253 20.6118 741.862 17.9197 745.497 15.2589C748.488 13.0653 751.438 10.8222 754.372 8.55318C754.687 8.31039 755.002 8.0676 755.326 7.81746C755.602 7.60346 755.878 7.38946 756.163 7.16898C757.08 6.49974 757.621 6.17822 758.771 6.17822Z" fill="black"/>
<path d="M676.991 51.3323C678.702 52.895 679.956 54.7429 681.218 56.6733C681.465 57.0477 681.711 57.422 681.965 57.8078C685.412 63.1605 689.835 70.4836 689.835 76.9901C691.266 75.656 692.259 74.3343 693.252 72.6535C698.074 64.961 704.698 60.3965 713.484 58.2726C715.987 57.7997 718.435 57.7736 720.975 57.802C721.468 57.7965 721.962 57.791 722.47 57.7853C730.798 57.8164 737.893 60.9995 744.033 66.5347C744.358 66.8158 744.684 67.097 745.019 67.3868C748.824 70.8913 752.594 76.267 754.017 81.2673C754.042 82.059 754.048 82.8521 754.017 83.6436C752.629 83.7078 751.245 83.7548 749.857 83.7921C749.464 83.812 749.072 83.8319 748.668 83.8524C745.745 83.9113 745.745 83.9113 744.317 82.5761C743.941 81.9283 743.941 81.9283 743.557 81.2673C743.329 80.9206 743.1 80.5738 742.865 80.2166C742.652 79.8772 742.439 79.5378 742.22 79.1881C738.551 73.7094 732.969 69.955 726.472 68.625C718.645 67.6071 711.75 69.267 705.435 73.9901C700.08 78.4786 697.263 84.8566 696.491 91.7228C695.956 98.1353 697.968 104.658 701.828 109.754C706.532 115.241 712.704 118.776 719.994 119.384C727.479 119.521 734.3 116.982 739.756 111.789C743.816 107.27 746.299 101.564 746.56 95.4858C746.58 95.0431 746.6 94.6005 746.621 94.1445C746.639 93.6884 746.658 93.2323 746.677 92.7624C746.698 92.2971 746.718 91.8318 746.739 91.3524C746.79 90.2086 746.838 89.0647 746.885 87.9208C749.709 87.9208 752.533 87.9208 755.443 87.9208C756.826 93.4517 756.102 99.6053 754.804 105.091C754.439 106.454 754.439 106.454 754.492 107.881C754.887 107.418 754.887 107.418 755.291 106.946C755.635 106.549 755.979 106.152 756.334 105.743C756.676 105.346 757.018 104.949 757.37 104.54C757.676 104.231 757.981 103.922 758.295 103.604C758.609 103.604 758.923 103.604 759.246 103.604C760.076 106.694 760.626 109.787 761.122 112.946C761.205 113.469 761.288 113.993 761.374 114.532C761.548 115.634 761.721 116.737 761.894 117.839C762.157 119.52 762.426 121.2 762.695 122.879C762.864 123.954 763.033 125.029 763.202 126.104C763.322 126.852 763.322 126.852 763.445 127.615C763.854 130.261 764.086 132.768 764 135.446C762.574 134.806 761.585 134.098 760.486 132.991C760.03 132.535 760.03 132.535 759.564 132.069C759.241 131.741 758.918 131.413 758.585 131.075C758.25 130.739 757.915 130.403 757.57 130.057C756.502 128.984 755.438 127.908 754.373 126.832C753.649 126.103 752.925 125.375 752.2 124.647C750.426 122.863 748.655 121.076 746.885 119.287C746.663 119.48 746.441 119.673 746.212 119.871C745.917 120.126 745.622 120.38 745.318 120.642C745.027 120.894 744.736 121.145 744.436 121.404C737.228 127.425 728.225 130.437 718.835 129.743C710.008 128.812 702.761 125.635 696.491 119.287C696.479 119.832 696.467 120.376 696.455 120.937C696.41 122.951 696.362 124.964 696.314 126.977C696.293 127.849 696.273 128.722 696.254 129.595C696.227 130.847 696.197 132.098 696.166 133.35C696.158 133.742 696.15 134.135 696.142 134.539C696.069 137.292 696.069 137.292 695.54 137.822C694.763 137.863 693.984 137.873 693.205 137.868C692.735 137.867 692.265 137.865 691.78 137.864C691.285 137.86 690.79 137.856 690.281 137.851C689.784 137.849 689.287 137.847 688.775 137.845C687.544 137.839 686.312 137.832 685.081 137.822C685.095 137.554 685.109 137.287 685.124 137.012C687.828 103.328 687.828 103.328 674.621 73.6634C674.252 73.2278 674.252 73.2278 673.875 72.7834C666.736 64.9299 656.165 62.3686 645.979 61.836C645.547 61.8182 645.115 61.8005 644.67 61.7822C645.302 59.8866 646.496 59.319 648.117 58.3069C648.416 58.1184 648.715 57.9299 649.023 57.7357C655.288 53.8664 669.864 46.5295 676.991 51.3323Z" fill="black"/>
<path d="M654.178 179.168C663.272 181.551 671.201 185.925 677.949 192.475C678.309 192.801 678.669 193.126 679.041 193.461C683.974 198.061 686.853 203.838 689.582 209.905C690.151 211.382 690.151 211.382 690.785 211.961C690.976 211.489 691.166 211.017 691.363 210.531C694.146 203.813 697.573 198.203 702.671 192.951C703.098 192.471 703.098 192.471 703.534 191.982C709.413 185.61 718.481 180.917 726.917 179.168C726.732 186.178 723.723 192.893 720.737 199.129C720.595 199.425 720.454 199.72 720.308 200.025C715.679 209.535 708.736 217.643 702.089 225.79C698.326 230.413 694.736 235.157 691.26 240C689.312 239.267 688.464 238.027 687.249 236.376C686.829 235.813 686.407 235.251 685.984 234.689C685.761 234.392 685.538 234.095 685.308 233.789C684.101 232.215 682.835 230.69 681.574 229.159C679.265 226.34 677.037 223.474 674.869 220.547C673.657 218.911 672.433 217.289 671.172 215.69C664.654 207.399 659.571 198.76 656.139 188.763C655.997 188.354 655.855 187.946 655.708 187.525C654.792 184.744 654.352 182.089 654.178 179.168Z" fill="black"/>
<path d="M728.343 147.327C728.832 149.75 728.895 152.075 728.899 154.535C728.9 154.951 728.902 155.367 728.903 155.796C728.906 156.674 728.907 157.553 728.907 158.431C728.908 159.76 728.916 161.088 728.925 162.417C728.955 171.645 728.955 171.645 727.868 174.891C726.84 175.919 726.429 176.048 725.062 176.391C717.074 178.516 709.828 181.671 703.621 187.247C703.31 187.492 702.999 187.736 702.678 187.988C697.908 191.812 694.369 197.258 691.26 202.455C689.674 201.927 689.512 201.698 688.631 200.367C688.405 200.033 688.179 199.699 687.947 199.355C687.707 198.996 687.467 198.637 687.219 198.267C679.973 187.762 670.742 180.641 658.484 176.929C656.665 176.376 654.961 175.67 653.227 174.891C652.884 171.091 652.632 167.298 652.484 163.485C652.464 162.977 652.444 162.469 652.423 161.946C652.249 157.23 652.229 152.52 652.276 147.802C654.925 147.923 656.286 149.612 658.07 151.366C658.711 151.98 659.351 152.594 659.992 153.208C660.301 153.506 660.611 153.805 660.929 154.112C661.985 155.123 663.068 156.099 664.162 157.069C673.997 165.88 673.997 165.88 676.998 169.663C677.361 170.109 677.725 170.555 678.099 171.015C683.6 177.873 687.351 185.368 690.785 193.426C691.011 192.811 691.011 192.811 691.242 192.184C694.75 183.009 699.286 175.116 705.972 167.877C706.815 166.959 707.614 166.022 708.405 165.059C709.693 163.541 711.138 162.277 712.653 160.99C713.567 160.192 714.42 159.362 715.269 158.495C716.644 157.099 718.082 155.814 719.568 154.539C720.537 153.681 721.483 152.809 722.425 151.921C722.724 151.64 723.023 151.358 723.331 151.069C723.934 150.499 724.536 149.928 725.135 149.355C727.288 147.327 727.288 147.327 728.343 147.327Z" fill="black"/>
<path d="M396.679 -0.208064C397.077 -0.204465 397.474 -0.200866 397.884 -0.197158C402.642 -0.0703187 406.321 1.49418 409.813 4.75233C413.365 8.6335 414.755 13.0759 414.667 18.3025C414.254 23.1801 412.3 27.2624 408.684 30.5642C403.707 34.535 398.351 34.6738 392.222 34.2177C388.291 33.4899 385.28 31.0201 382.714 28.0395C379.772 23.3935 378.57 18.6134 379.711 13.1861C381.182 7.91992 383.7 4.29196 388.419 1.4256C391.159 0.0897936 393.653 -0.246468 396.679 -0.208064Z" fill="black"/>
<path d="M663.687 110.733C668.735 114.855 675.623 121 676.523 127.842C675.097 127.366 675.097 127.366 674.176 126.178C669.602 120.48 662.404 117.53 655.426 116.109C645.052 115.215 634.768 117.936 626.574 124.545C623.537 127.345 620.738 130.889 618.665 134.462C618.461 134.786 618.257 135.111 618.046 135.446C617.733 135.446 617.419 135.446 617.096 135.446C616.769 126.243 617.864 117.599 620.156 108.683C620.242 108.331 620.328 107.979 620.416 107.616C620.847 106.074 621.207 105.168 622.455 104.139C635.717 98.6687 652.603 102.33 663.687 110.733Z" fill="black"/>
<path d="M729.705 82.3049C732.743 84.6004 734.412 88.0011 734.999 91.7226C735.275 95.8596 734.295 99.3754 731.671 102.653C728.862 105.645 725.784 106.956 721.688 107.109C717.842 106.96 714.872 105.842 712.083 103.155C709.041 99.6775 708.421 96.1326 708.651 91.6224C709.052 88.0206 710.299 85.4837 713.13 83.1682C718.152 79.6411 724.337 78.8965 729.705 82.3049ZM719.459 90.4157C718.174 91.8499 718.174 91.8499 717.884 93.6236C718.664 95.2611 719.208 95.9318 720.737 96.9504C722.487 96.8879 723.636 96.8236 725.015 95.7028C725.723 94.0233 725.511 92.9823 725.015 91.2474C723.977 90.0441 723.977 90.0441 722.638 89.3464C720.702 89.143 720.702 89.143 719.459 90.4157Z" fill="black"/>
<path d="M689.804 141.772C690.262 141.771 690.72 141.771 691.192 141.77C694.786 141.841 696.77 142.703 699.58 144.951C700.293 145.901 700.293 145.901 700.22 146.782C699.69 148.125 698.93 148.85 697.899 149.859C697.515 150.239 697.13 150.619 696.734 151.01C696.128 151.598 696.128 151.598 695.509 152.198C694.9 152.797 694.9 152.797 694.279 153.409C693.276 154.395 692.269 155.377 691.26 156.357C689.408 155.494 688.043 154.299 686.565 152.911C686.313 152.677 686.061 152.443 685.802 152.202C684.097 150.614 682.426 148.997 680.801 147.327C682.943 142.858 684.797 141.562 689.804 141.772Z" fill="black"/>
<path d="M656.128 87.856C658.966 87.741 661.056 88.2826 663.166 90.1466C664.124 91.1119 665.038 92.1047 665.945 93.119C666.258 93.4593 666.571 93.7996 666.894 94.1502C670.818 98.4429 670.818 98.4429 670.818 99.8022C668.942 99.921 667.067 100.006 665.189 100.063C664.241 100.098 663.295 100.159 662.349 100.22C657.795 100.335 657.795 100.335 655.585 98.7952C654.385 97.6003 653.323 96.38 652.276 95.0497C651.666 94.3636 651.052 93.6799 650.434 93.0002C647.047 89.0457 647.047 89.0457 647.047 88.3962C648.315 88.3156 649.582 88.2366 650.85 88.1586C651.204 88.1359 651.557 88.1133 651.922 88.0899C653.324 88.0046 654.727 87.9471 656.128 87.856Z" fill="black"/>
<path d="M716.933 156.832C717.247 156.988 717.561 157.145 717.884 157.307C713.805 161.384 709.726 165.462 705.523 169.663C705.209 169.506 704.896 169.35 704.572 169.188C707.169 166.282 709.729 163.429 712.721 160.919C714.207 159.64 715.567 158.236 716.933 156.832Z" fill="black"/>
<path d="M701.72 63.208C702.034 63.3648 702.348 63.5217 702.671 63.6833C700.475 65.8789 698.278 68.0745 696.015 70.3367C695.702 70.1799 695.388 70.0231 695.064 69.8615C695.726 69.1069 696.39 68.3549 697.055 67.604C697.61 66.9755 697.61 66.9755 698.175 66.3342C699.288 65.1666 700.437 64.1829 701.72 63.208Z" fill="black"/>
<path d="M758.295 103.604C758.609 103.604 758.922 103.604 759.246 103.604C758.521 105.316 757.499 106.428 756.185 107.733C755.813 108.107 755.441 108.481 755.058 108.867C754.016 109.782 754.016 109.782 752.59 110.257C753.309 108.428 754.398 107.657 755.918 106.455C756.354 105.949 756.78 105.434 757.195 104.911C757.558 104.48 757.921 104.048 758.295 103.604Z" fill="black"/>
<path d="M387.468 1.90088C387.782 2.05771 388.095 2.21454 388.419 2.37613C386.379 4.41494 384.34 6.45375 382.238 8.55434C382.238 6.79669 382.632 6.50405 383.783 5.22761C384.07 4.90415 384.357 4.58068 384.653 4.24741C385.537 3.35649 386.445 2.62496 387.468 1.90088Z" fill="black"/>
<path d="M647.047 58.9307C647.361 59.0875 647.675 59.2443 647.998 59.4059C647.292 60.1117 647.292 60.1117 646.572 60.8317C647.67 60.9885 648.768 61.1453 649.9 61.3069C649.9 61.4637 649.9 61.6206 649.9 61.7821C648.174 61.7821 646.448 61.7821 644.67 61.7821C645.209 60.1667 645.68 59.8562 647.047 58.9307Z" fill="black"/>
</g>
<defs>
<clipPath id="clip0_4293_108516">
<rect width="764" height="240" fill="white"/>
</clipPath>
</defs>
</svg>
